<svg aria-hidden="true" width="11.3rem" height="8.1rem" viewBox="0 0 280 196" version="1.1"
     xmlns="http://www.w3.org/2000/svg" shape-rendering="geometricPrecision"
     text-rendering="geometricPrecision" class="TopSelectionCard_icon-top-ten__0i_VT" data-tid="Number8Icon">
    <g id="num_8-masks_group" mask="url(#num_8-masks)">
        <path id="num_8-shape"
              d="M110.900000,26C125.900000,19.200000,144.900000,15,164.500000,14.300000C184.100000,13.500000,202,16.300000,215,22C221.500000,24.800000,227.400000,28.600000,231.500000,33.600000C235.700000,38.700000,238.500000,45.600000,237.200000,54C235.900000,62.500000,230.800000,69.700000,224.900000,75.100000C222.900000,76.900000,220.800000,78.600000,218.600000,80.200000C221.200000,81,223.800000,81.800000,226.200000,82.700000C236,86.400000,244.600000,91.200000,250.600000,97.400000C256.600000,103.600000,260.900000,112.200000,259.200000,123C257.500000,133.800000,250.500000,142.800000,242.400000,149.600000C234.300000,156.400000,224.100000,161.900000,213,166.400000C190.700000,175.400000,161.900000,181.300000,131.600000,182.500000C101.300000,183.700000,74,180,54.300000,172.600000C44.500000,168.900000,35.900000,164.100000,29.900000,157.900000C23.900000,151.700000,19.600000,143.100000,21.300000,132.300000C23,121.500000,30,112.500000,38.100000,105.700000C46.200000,98.900000,56.400000,93.400000,67.500000,88.900000C73.200000,86.600000,79.300000,84.500000,85.700000,82.600000C85,81.900000,84.400000,81.300000,83.800000,80.500000C79.600000,75.400000,76.800000,68.500000,78.100000,60.100000C79.400000,51.600000,84.500000,44.400000,90.400000,39C96.200000,33.700000,103.400000,29.400000,110.900000,26ZM153,72.700000C151.600000,72.700000,150.300000,72.800000,148.900000,72.800000C148.700000,72.800000,148.500000,72.800000,148.300000,72.800000C123,73.300000,104.300000,68,105.400000,60.200000C106.600000,51.600000,130.900000,43.300000,159.900000,41.500000C188.800000,39.700000,211.300000,45.200000,210.100000,53.800000C208.900000,62.400000,184.600000,70.700000,155.600000,72.500000C154.700000,72.700000,153.900000,72.700000,153,72.700000ZM231.900000,123.200000C229.700000,138.300000,186.800000,152.500000,136.200000,155C85.600000,157.500000,46.400000,147.300000,48.600000,132.200000C50.800000,117.100000,93.700000,102.900000,144.300000,100.400000C194.900000,97.900000,234.100000,108.100000,231.900000,123.200000Z"
              fill="url(#gradient_normal)" fill-rule="evenodd" stroke="none" stroke-width="1"></path>
        <mask id="num_8-masks" >
            <path id="num_8-mask_1"
                  d="M162.300000,28.100000C126.100000,29.400000,94.700000,45.700000,92.200000,61.700000C89.700000,77.700000,119.600000,87.900000,155.800000,86.500000L155.800000,86.500000C209,86.100000,248.600000,100.200000,245.200000,121.600000C241.600000,144.200000,191.700000,166.400000,133.700000,168.700000C75.700000,171,31.600000,156.500000,35.200000,133.800000C38.800000,111.200000,88.700000,88.900000,146.700000,86.700000L146.700000,86.700000C182.900000,85.300000,220.900000,69.800000,223.200000,52.500000C225.900000,35.600000,198.200000,26.800000,162.300000,28.100000Z"
                  fill="none" stroke="rgb(255,255,255)" stroke-width="28" stroke-dashoffset="2370.78"
                  stroke-dasharray="790.260000" class="TopSelectionCard_num_8-mask_1__PJxd0"></path>
        </mask>
    </g>
    <g>
        <path d="M110.900000,26C125.900000,19.200000,144.900000,15,164.500000,14.300000C184.100000,13.500000,202,16.300000,215,22C221.500000,24.800000,227.400000,28.600000,231.500000,33.600000C235.700000,38.700000,238.500000,45.600000,237.200000,54C235.900000,62.500000,230.800000,69.700000,224.900000,75.100000C222.900000,76.900000,220.800000,78.600000,218.600000,80.200000C221.200000,81,223.800000,81.800000,226.200000,82.700000C236,86.400000,244.600000,91.200000,250.600000,97.400000C256.600000,103.600000,260.900000,112.200000,259.200000,123C257.500000,133.800000,250.500000,142.800000,242.400000,149.600000C234.300000,156.400000,224.100000,161.900000,213,166.400000C190.700000,175.400000,161.900000,181.300000,131.600000,182.500000C101.300000,183.700000,74,180,54.300000,172.600000C44.500000,168.900000,35.900000,164.100000,29.900000,157.900000C23.900000,151.700000,19.600000,143.100000,21.300000,132.300000C23,121.500000,30,112.500000,38.100000,105.700000C46.200000,98.900000,56.400000,93.400000,67.500000,88.900000C73.200000,86.600000,79.300000,84.500000,85.700000,82.600000C85,81.900000,84.400000,81.300000,83.800000,80.500000C79.600000,75.400000,76.800000,68.500000,78.100000,60.100000C79.400000,51.600000,84.500000,44.400000,90.400000,39C96.200000,33.700000,103.400000,29.400000,110.900000,26ZM153,72.700000C151.600000,72.700000,150.300000,72.800000,148.900000,72.800000C148.700000,72.800000,148.500000,72.800000,148.300000,72.800000C123,73.300000,104.300000,68,105.400000,60.200000C106.600000,51.600000,130.900000,43.300000,159.900000,41.500000C188.800000,39.700000,211.300000,45.200000,210.100000,53.800000C208.900000,62.400000,184.600000,70.700000,155.600000,72.500000C154.700000,72.700000,153.900000,72.700000,153,72.700000ZM231.900000,123.200000C229.700000,138.300000,186.800000,152.500000,136.200000,155C85.600000,157.500000,46.400000,147.300000,48.600000,132.200000C50.800000,117.100000,93.700000,102.900000,144.300000,100.400000C194.900000,97.900000,234.100000,108.100000,231.900000,123.200000Z"
              fill="url(#gradient_active)" fill-rule="evenodd" stroke="none" stroke-width="1"
              class="TopSelectionCard_icon-shape-top-ten__Fhgsf"></path>
    </g>
</svg>